<?xml version="1.0" standalone="no"?>
<!DOCTYPE svg PUBLIC "-//W3C//DTD SVG 20010904//EN"
 "http://www.w3.org/TR/2001/REC-SVG-20010904/DTD/svg10.dtd">
<svg version="1.0" xmlns="http://www.w3.org/2000/svg"
 width="396.000000pt" height="396.000000pt" viewBox="0 0 396.000000 396.000000"
 preserveAspectRatio="xMidYMid meet">
<metadata>
Created by potrace 1.11, written by Peter Selinger 2001-2013
</metadata>
<g transform="translate(0.000000,396.000000) scale(0.100000,-0.100000)"
fill="#000000" stroke="none">
<path d="M0 1980 l0 -1810 1980 0 1980 0 0 1810 0 1810 -1980 0 -1980 0 0
-1810z m2400 1480 c0 -5 9 -10 20 -10 11 0 20 -4 20 -10 0 -5 14 -10 30 -10
23 0 30 4 30 20 0 11 5 20 10 20 6 0 10 -4 10 -10 0 -5 9 -10 20 -10 11 0 20
-4 20 -10 0 -5 9 -10 20 -10 11 0 20 -4 20 -10 0 -5 7 -10 15 -10 9 0 56 -40
105 -90 49 -49 95 -90 102 -90 8 0 20 -9 28 -20 8 -11 21 -20 28 -20 8 0 27
-13 42 -30 15 -16 35 -30 44 -30 9 0 16 -7 16 -16 0 -8 18 -33 40 -54 22 -21
40 -46 40 -54 0 -9 5 -16 10 -16 6 0 10 -9 10 -20 0 -11 5 -20 10 -20 6 0 10
-13 10 -30 0 -16 5 -30 10 -30 6 0 10 -43 10 -110 0 -67 -4 -110 -10 -110 -5
0 -10 -13 -10 -30 0 -16 -4 -30 -10 -30 -5 0 -10 -9 -10 -20 0 -11 -4 -20 -10
-20 -5 0 -10 -7 -10 -15 0 -19 -44 -65 -62 -65 -8 0 -20 -9 -28 -20 -8 -12
-26 -20 -42 -20 -15 0 -28 -4 -28 -10 0 -5 -9 -10 -20 -10 -11 0 -20 -4 -20
-10 0 -5 -9 -10 -20 -10 -11 0 -20 -4 -20 -10 0 -5 -18 -10 -40 -10 -22 0 -40
-4 -40 -10 0 -5 -22 -10 -50 -10 -27 0 -50 5 -50 10 0 6 -13 10 -30 10 -16 0
-30 5 -30 10 0 6 -9 10 -20 10 -11 0 -20 5 -20 10 0 6 -9 10 -20 10 -13 0 -20
7 -20 20 0 13 -7 20 -20 20 -13 0 -20 7 -20 18 0 10 -9 24 -20 32 -12 8 -20
26 -20 42 0 15 -4 28 -10 28 -5 0 -10 14 -10 30 0 17 -4 30 -10 30 -5 0 -10
18 -10 40 0 22 -4 40 -10 40 -6 0 -10 37 -10 90 0 53 -4 90 -10 90 -6 0 -10
40 -10 100 0 60 4 100 10 100 6 0 10 9 10 20 0 11 5 20 10 20 6 0 10 7 10 16
0 18 23 44 40 44 19 0 40 27 40 50 0 12 -13 35 -30 50 -16 15 -30 34 -30 42 0
7 -9 20 -20 28 -23 16 -26 54 -7 75 14 17 27 19 27 5z m-1220 -200 c0 -5 18
-10 40 -10 22 0 40 5 40 10 0 6 14 10 30 10 17 0 30 -4 30 -10 0 -5 18 -10 40
-10 22 0 40 -4 40 -10 0 -5 17 -10 38 -10 26 0 42 -6 52 -20 10 -14 26 -20 52
-20 21 0 38 5 38 10 0 6 33 10 80 10 47 0 80 -4 80 -10 0 -5 14 -10 30 -10 17
0 30 -4 30 -10 0 -5 14 -10 30 -10 17 0 30 -4 30 -10 0 -5 9 -10 20 -10 11 0
20 -4 20 -10 0 -5 7 -10 15 -10 20 0 145 -125 145 -145 0 -8 5 -15 10 -15 6 0
10 -9 10 -20 0 -11 5 -20 10 -20 6 0 10 -9 10 -20 0 -11 5 -20 10 -20 6 0 10
-13 10 -30 0 -16 5 -30 10 -30 6 0 10 -33 10 -80 0 -47 -4 -80 -10 -80 -5 0
-10 -9 -10 -20 0 -11 -4 -20 -10 -20 -5 0 -10 -9 -10 -20 0 -11 -4 -20 -10
-20 -5 0 -10 -7 -10 -15 0 -20 -45 -65 -65 -65 -8 0 -15 -4 -15 -10 0 -5 -9
-10 -20 -10 -11 0 -20 -4 -20 -10 0 -5 -9 -10 -20 -10 -11 0 -20 -4 -20 -10 0
-5 -9 -10 -20 -10 -11 0 -20 -4 -20 -10 0 -5 -9 -10 -20 -10 -11 0 -20 -4 -20
-10 0 -5 -13 -10 -30 -10 -16 0 -30 -4 -30 -10 0 -6 -33 -10 -80 -10 -47 0
-80 4 -80 10 0 6 -8 10 -18 10 -10 0 -24 9 -32 20 -8 11 -20 20 -28 20 -7 0
-35 23 -62 50 -27 28 -56 50 -64 50 -9 0 -16 7 -16 16 0 8 -18 33 -40 54 -22
21 -40 45 -40 52 0 7 -9 20 -20 28 -11 8 -20 21 -20 28 0 8 -13 27 -30 42 -16
15 -30 34 -30 42 0 7 -9 20 -20 28 -12 8 -20 26 -20 42 0 15 -4 28 -10 28 -5
0 -10 23 -10 50 0 28 5 50 10 50 6 0 10 9 10 20 0 11 5 20 10 20 15 0 12 49
-4 66 -8 8 -22 14 -30 14 -9 0 -16 5 -16 10 0 6 -13 10 -30 10 -16 0 -30 5
-30 10 0 6 -7 10 -16 10 -23 0 -44 25 -44 54 0 25 1 26 70 26 40 0 70 4 70 10
0 6 5 10 10 10 6 0 10 -4 10 -10z m-515 -545 c19 -19 35 -41 35 -50 0 -8 5
-15 10 -15 6 0 10 23 10 50 0 38 4 50 15 50 23 0 65 -46 65 -70 0 -12 6 -28
14 -36 17 -16 106 -20 106 -4 0 6 9 10 20 10 11 0 20 -4 20 -10 0 -5 9 -10 20
-10 11 0 20 5 20 10 0 6 27 10 60 10 33 0 60 -4 60 -10 0 -5 9 -10 20 -10 11
0 20 -4 20 -10 0 -5 9 -10 20 -10 11 0 20 -4 20 -10 0 -5 9 -10 20 -10 11 0
20 -4 20 -10 0 -5 9 -10 20 -10 11 0 20 -4 20 -10 0 -5 9 -10 20 -10 11 0 20
-4 20 -10 0 -5 9 -10 20 -10 11 0 20 -4 20 -10 0 -5 9 -10 20 -10 11 0 20 -4
20 -10 0 -5 7 -10 16 -10 8 0 33 -18 54 -40 21 -22 43 -40 50 -40 15 0 60 -46
60 -62 0 -8 9 -20 20 -28 11 -8 20 -22 20 -32 0 -10 5 -18 10 -18 6 0 10 -40
10 -100 0 -60 -4 -100 -10 -100 -5 0 -10 -9 -10 -20 0 -11 -4 -20 -10 -20 -5
0 -10 -8 -10 -18 0 -10 -9 -24 -20 -32 -11 -8 -20 -22 -20 -32 0 -11 -7 -18
-18 -18 -10 0 -24 -9 -32 -20 -8 -12 -26 -20 -42 -20 -15 0 -28 -4 -28 -10 0
-5 -9 -10 -20 -10 -11 0 -20 -4 -20 -10 0 -5 -9 -10 -20 -10 -11 0 -20 -4 -20
-10 0 -5 -9 -10 -20 -10 -11 0 -20 -4 -20 -10 0 -6 -43 -10 -110 -10 -67 0
-110 4 -110 10 0 6 -13 10 -30 10 -16 0 -30 5 -30 10 0 6 -9 10 -20 10 -11 0
-20 5 -20 10 0 6 -9 10 -20 10 -11 0 -20 5 -20 10 0 6 -7 10 -15 10 -20 0
-145 125 -145 145 0 8 -4 15 -10 15 -5 0 -10 9 -10 20 0 11 -4 20 -10 20 -5 0
-10 9 -10 20 0 11 -4 20 -10 20 -5 0 -10 18 -10 40 0 22 -4 40 -10 40 -5 0
-10 14 -10 30 0 17 -4 30 -10 30 -5 0 -10 23 -10 50 0 28 -4 50 -10 50 -5 0
-10 9 -10 20 0 11 -4 20 -10 20 -5 0 -10 14 -10 30 0 17 -4 30 -10 30 -5 0
-10 9 -10 20 0 11 -4 20 -10 20 -5 0 -10 14 -10 30 0 17 -4 30 -10 30 -6 0
-10 37 -10 90 0 104 9 112 65 55z m1695 -535 c0 -5 18 -10 40 -10 22 0 40 5
40 10 0 6 27 10 60 10 33 0 60 -4 60 -10 0 -5 14 -10 30 -10 17 0 30 -4 30
-10 0 -5 14 -10 30 -10 17 0 30 -4 30 -10 0 -5 9 -10 20 -10 11 0 20 -4 20
-10 0 -6 30 -10 70 -10 40 0 70 4 70 10 0 6 18 10 40 10 22 0 40 5 40 10 0 6
23 10 50 10 28 0 50 5 50 10 0 6 37 10 90 10 53 0 90 -4 90 -10 0 -5 11 -10
25 -10 28 0 135 -99 135 -125 0 -8 5 -15 10 -15 6 0 10 -9 10 -20 0 -11 5 -20
10 -20 6 0 10 -13 10 -30 0 -16 5 -30 10 -30 6 0 10 -37 10 -90 0 -53 -4 -90
-10 -90 -5 0 -10 -18 -10 -40 0 -22 -4 -40 -10 -40 -5 0 -10 -13 -10 -28 0
-16 -8 -34 -20 -42 -11 -8 -20 -26 -20 -40 0 -14 -9 -32 -20 -40 -11 -8 -20
-22 -20 -32 0 -10 -4 -18 -10 -18 -5 0 -10 -7 -10 -16 0 -8 -18 -33 -40 -54
-22 -21 -40 -44 -40 -50 0 -6 -22 -33 -50 -60 -27 -27 -50 -54 -50 -60 0 -6
-22 -33 -50 -60 -27 -27 -50 -54 -50 -60 0 -6 -22 -33 -50 -60 -27 -27 -50
-54 -50 -60 0 -16 -87 -100 -105 -100 -8 0 -15 -9 -15 -20 0 -13 -7 -20 -18
-20 -10 0 -24 -9 -32 -20 -8 -11 -21 -20 -30 -20 -9 0 -22 -9 -30 -20 -8 -11
-22 -20 -32 -20 -10 0 -18 -4 -18 -10 0 -5 -13 -10 -30 -10 -16 0 -30 -4 -30
-10 0 -5 -9 -10 -20 -10 -11 0 -20 -4 -20 -10 0 -5 -8 -10 -18 -10 -10 0 -24
-9 -32 -20 -11 -15 -26 -20 -62 -20 -26 0 -48 -4 -48 -10 0 -6 -40 -10 -100
-10 -60 0 -100 4 -100 10 0 6 -9 10 -20 10 -11 0 -20 5 -20 10 0 6 -9 10 -20
10 -11 0 -20 5 -20 10 0 6 -7 10 -15 10 -20 0 -85 65 -85 85 0 8 -4 15 -10 15
-5 0 -10 9 -10 20 0 11 -4 20 -10 20 -6 0 -10 77 -10 210 0 133 -4 210 -10
210 -5 0 -10 13 -10 28 0 16 -8 34 -20 42 -11 8 -20 22 -20 32 0 10 -4 18 -10
18 -5 0 -10 9 -10 20 0 11 -4 20 -10 20 -5 0 -10 9 -10 20 0 11 -4 20 -10 20
-5 0 -10 9 -10 20 0 11 -4 20 -10 20 -6 0 -10 50 -10 130 0 80 4 130 10 130 6
0 10 9 10 20 0 11 5 20 10 20 6 0 10 13 10 28 0 16 8 34 20 42 11 8 20 21 20
30 0 9 9 22 20 30 11 8 20 20 20 27 0 8 29 43 65 78 35 36 70 65 78 65 7 0 19
9 27 20 8 11 22 20 32 20 10 0 18 5 18 10 0 6 9 10 20 10 11 0 20 5 20 10 0 6
27 10 60 10 33 0 60 4 60 10 0 6 9 10 20 10 11 0 20 -4 20 -10z m-760 -700 c0
-5 14 -10 30 -10 17 0 30 -4 30 -10 0 -5 7 -10 15 -10 20 0 105 -85 105 -105
0 -8 5 -15 10 -15 6 0 10 -13 10 -30 0 -16 5 -30 10 -30 6 0 10 -33 10 -80 0
-47 -4 -80 -10 -80 -5 0 -10 -13 -10 -28 0 -16 -8 -34 -20 -42 -11 -8 -20 -20
-20 -28 0 -18 -46 -62 -65 -62 -8 0 -15 -4 -15 -10 0 -5 -13 -10 -30 -10 -16
0 -30 -4 -30 -10 0 -5 -8 -10 -18 -10 -10 0 -24 -9 -32 -20 -8 -12 -26 -20
-42 -20 -15 0 -28 -4 -28 -10 0 -5 -9 -10 -20 -10 -11 0 -20 -4 -20 -10 0 -6
-50 -10 -130 -10 -80 0 -130 4 -130 10 0 6 -9 10 -20 10 -11 0 -20 5 -20 10 0
6 -13 10 -28 10 -16 0 -34 8 -42 20 -8 11 -20 20 -28 20 -7 0 -57 45 -112 100
-55 55 -105 100 -112 100 -8 0 -20 9 -28 20 -8 11 -20 20 -27 20 -17 0 -143
126 -143 143 0 7 -9 19 -20 27 -26 19 -26 50 0 50 11 0 20 5 20 10 0 6 9 10
20 10 11 0 20 -4 20 -10 0 -5 14 -10 30 -10 17 0 30 5 30 10 0 6 14 10 30 10
17 0 30 -4 30 -10 0 -5 9 -10 19 -10 11 0 21 -6 23 -12 3 -8 26 9 56 40 35 36
59 52 76 52 14 0 26 5 26 10 0 6 40 10 100 10 60 0 100 4 100 10 0 6 73 10
200 10 127 0 200 -4 200 -10z"/>
<path d="M2420 3384 c0 -3 14 -19 30 -34 17 -15 30 -35 30 -44 0 -9 5 -16 10
-16 6 0 10 -9 10 -19 0 -11 5 -21 12 -23 14 -5 -34 -58 -52 -58 -16 0 -40 -26
-40 -42 0 -8 -9 -20 -20 -28 -18 -13 -20 -26 -20 -112 0 -59 4 -98 10 -98 6 0
10 -33 10 -80 0 -47 4 -80 10 -80 6 0 10 -22 10 -50 0 -27 5 -50 10 -50 6 0
10 -13 10 -30 0 -16 5 -30 10 -30 6 0 10 -9 10 -20 0 -11 5 -20 10 -20 6 0 10
-7 10 -15 0 -20 65 -85 85 -85 8 0 15 -4 15 -10 0 -5 14 -10 30 -10 17 0 30
-4 30 -10 0 -5 14 -10 30 -10 23 0 30 4 30 20 0 11 -7 20 -15 20 -19 0 -105
84 -105 103 0 7 -9 19 -20 27 -12 8 -20 26 -20 42 0 15 -4 28 -10 28 -5 0 -10
14 -10 30 0 17 -4 30 -10 30 -6 0 -10 30 -10 70 0 40 -4 70 -10 70 -6 0 -10
57 -10 150 0 93 4 150 10 150 6 0 10 7 10 15 0 18 44 65 60 65 15 0 40 25 40
40 0 15 -67 80 -82 80 -8 0 -20 9 -28 20 -13 18 -70 29 -70 14z"/>
<path d="M1120 3214 c0 -20 24 -44 44 -44 9 0 16 -4 16 -10 0 -5 7 -10 15 -10
19 0 65 -44 65 -62 0 -8 -9 -20 -20 -28 -11 -8 -20 -22 -20 -32 0 -10 -4 -18
-10 -18 -5 0 -10 -22 -10 -50 0 -27 5 -50 10 -50 6 0 10 -9 10 -20 0 -11 5
-20 10 -20 6 0 10 -7 10 -16 0 -9 14 -29 30 -44 17 -15 30 -34 30 -42 0 -7 9
-20 20 -28 11 -8 20 -21 20 -28 0 -7 18 -31 40 -52 22 -21 40 -43 40 -49 0
-17 107 -121 125 -121 8 0 15 -4 15 -10 0 -5 9 -10 20 -10 11 0 20 -4 20 -10
0 -5 9 -10 20 -10 11 0 20 -4 20 -10 0 -5 23 -10 50 -10 28 0 50 3 50 6 0 11
-29 34 -44 34 -9 0 -16 5 -16 10 0 6 -7 10 -15 10 -17 0 -185 164 -185 181 0
6 -13 24 -30 39 -16 15 -30 34 -30 42 0 7 -9 20 -20 28 -11 8 -20 21 -20 28 0
8 -13 27 -30 42 -18 17 -30 38 -30 54 0 14 -4 26 -10 26 -6 0 -10 27 -10 60 0
33 4 60 10 60 6 0 10 9 10 20 0 11 5 20 10 20 15 0 12 49 -4 66 -8 8 -22 14
-30 14 -9 0 -16 5 -16 10 0 6 -9 10 -20 10 -11 0 -20 5 -20 10 0 6 -22 10 -50
10 -27 0 -50 5 -50 10 0 6 -4 10 -10 10 -5 0 -10 -7 -10 -16z"/>
<path d="M640 2610 c0 -22 5 -40 10 -40 6 0 10 -13 10 -30 0 -16 5 -30 10 -30
6 0 10 -9 10 -20 0 -11 5 -20 10 -20 6 0 10 -9 10 -20 0 -11 5 -20 10 -20 6 0
10 -9 10 -20 0 -11 5 -20 10 -20 6 0 10 -22 10 -50 0 -27 5 -50 10 -50 6 0 10
-18 10 -40 0 -22 5 -40 10 -40 6 0 10 -13 10 -30 0 -16 5 -30 10 -30 6 0 10
-13 10 -28 0 -16 8 -34 20 -42 11 -8 20 -20 20 -27 0 -17 106 -123 123 -123 7
0 19 -9 27 -20 8 -12 26 -20 42 -20 15 0 28 -4 28 -10 0 -5 9 -10 20 -10 11 0
20 -4 20 -10 0 -5 23 -10 50 -10 28 0 50 3 50 6 0 14 -31 34 -52 34 -13 0 -30
9 -38 20 -8 11 -21 20 -30 20 -9 0 -22 9 -30 20 -8 11 -20 20 -28 20 -17 0
-62 45 -62 62 0 8 -9 20 -20 28 -11 8 -20 22 -20 32 0 10 -4 18 -10 18 -5 0
-10 9 -10 20 0 11 -4 20 -10 20 -5 0 -10 14 -10 30 0 17 -4 30 -10 30 -5 0
-10 18 -10 40 0 22 -4 40 -10 40 -5 0 -10 23 -10 50 0 28 -4 50 -10 50 -5 0
-10 9 -10 20 0 11 -4 20 -10 20 -5 0 -10 14 -10 30 0 17 -4 30 -10 30 -5 0
-10 7 -10 16 0 20 -24 44 -44 44 -9 0 -16 7 -16 15 0 14 -62 85 -75 85 -3 0
-5 -18 -5 -40z"/>
<path d="M2140 2080 c0 -5 -7 -10 -15 -10 -19 0 -165 -144 -165 -163 0 -7 -9
-19 -20 -27 -11 -8 -20 -22 -20 -32 0 -10 -4 -18 -10 -18 -5 0 -10 -9 -10 -20
0 -11 -4 -20 -10 -20 -5 0 -10 -13 -10 -30 0 -16 -4 -30 -10 -30 -6 0 -10 -43
-10 -110 0 -67 4 -110 10 -110 6 0 10 -13 10 -30 0 -16 5 -30 10 -30 6 0 10
-8 10 -18 0 -10 9 -24 20 -32 11 -8 20 -22 20 -32 0 -10 5 -18 10 -18 6 0 10
-9 10 -20 0 -11 5 -20 10 -20 6 0 10 -13 10 -30 0 -16 5 -30 10 -30 6 0 10
-27 10 -60 0 -33 4 -60 10 -60 6 0 10 -9 10 -20 0 -11 -4 -20 -10 -20 -6 0
-10 -47 -10 -120 0 -73 4 -120 10 -120 6 0 10 -11 10 -25 0 -27 59 -95 82 -95
8 0 20 -9 28 -20 8 -11 22 -20 32 -20 10 0 18 -4 18 -10 0 -6 27 -10 60 -10
33 0 60 3 60 6 0 11 -29 34 -44 34 -9 0 -16 5 -16 10 0 6 -7 10 -15 10 -20 0
-105 85 -105 105 0 8 -4 15 -10 15 -6 0 -10 30 -10 69 0 46 -4 71 -12 75 -10
5 -10 7 0 12 15 7 18 264 2 264 -5 0 -10 14 -10 30 0 17 -4 30 -10 30 -5 0
-10 8 -10 18 0 10 -9 24 -20 32 -11 8 -20 22 -20 32 0 10 -4 18 -10 18 -5 0
-10 9 -10 20 0 11 -4 20 -10 20 -5 0 -10 9 -10 20 0 11 -4 20 -10 20 -5 0 -10
18 -10 40 0 22 -4 40 -10 40 -5 0 -10 23 -10 50 0 28 5 50 10 50 6 0 10 23 10
50 0 28 5 50 10 50 6 0 10 9 10 20 0 11 5 20 10 20 6 0 10 9 10 20 0 11 5 20
10 20 6 0 10 7 10 16 0 9 14 29 30 44 17 15 30 33 30 40 0 6 18 29 40 50 38
36 52 70 30 70 -5 0 -10 -4 -10 -10z"/>
<path d="M923 1385 c-13 -13 -23 -29 -23 -35 0 -15 25 -40 40 -40 17 0 40 26
40 44 0 9 5 16 10 16 6 0 10 9 10 20 0 29 -49 26 -77 -5z"/>
<path d="M700 1295 c0 -19 84 -105 103 -105 7 0 19 -9 27 -20 8 -11 20 -20 27
-20 19 0 123 -106 123 -125 0 -8 7 -15 16 -15 9 0 29 -13 44 -30 15 -16 34
-30 42 -30 7 0 20 -9 28 -20 8 -11 22 -20 32 -20 10 0 18 -4 18 -10 0 -5 14
-10 30 -10 17 0 30 -4 30 -10 0 -6 27 -10 60 -10 33 0 60 4 60 10 0 6 -13 10
-28 10 -16 0 -34 8 -42 20 -8 11 -22 20 -32 20 -10 0 -18 5 -18 10 0 6 -8 10
-18 10 -10 0 -24 9 -32 20 -8 11 -20 20 -28 20 -15 0 -82 65 -82 80 0 15 -67
80 -82 80 -8 0 -20 9 -28 20 -8 11 -21 20 -28 20 -7 0 -31 18 -52 40 -25 26
-47 40 -64 40 -14 0 -26 5 -26 10 0 6 -9 10 -20 10 -11 0 -20 5 -20 10 0 6 -9
10 -20 10 -11 0 -20 -7 -20 -15z"/>
</g>
</svg>
